<?xml version="1.0" standalone="no"?>
<!DOCTYPE svg PUBLIC "-//W3C//DTD SVG 20010904//EN"
 "http://www.w3.org/TR/2001/REC-SVG-20010904/DTD/svg10.dtd">
<svg version="1.0" xmlns="http://www.w3.org/2000/svg"
 width="700.000000pt" height="700.000000pt" viewBox="0 0 700.000000 700.000000"
 preserveAspectRatio="xMidYMid meet">
<metadata>
Created by potrace 1.11, written by Peter Selinger 2001-2013
</metadata>
<g transform="translate(0.000000,700.000000) scale(0.100000,-0.100000)"
fill="#000000" stroke="none">
<path d="M5230 6991 c-50 -15 -88 -41 -126 -84 -22 -25 -534 -923 -1168 -2048
-622 -1102 -1134 -2011 -1139 -2020 -7 -12 166 -339 719 -1355 650 -1194 735
-1345 784 -1395 91 -92 66 -89 701 -89 364 0 557 4 576 11 67 25 101 93 82
161 -5 21 -331 626 -724 1345 l-715 1307 614 1086 c337 597 838 1481 1111
1965 274 484 507 900 518 924 35 79 7 154 -70 187 -26 11 -138 14 -585 13
-304 0 -564 -4 -578 -8z"/>
<path d="M1009 5611 c-46 -15 -69 -31 -85 -63 -37 -71 -34 -77 337 -718 189
-327 344 -604 343 -615 0 -11 -239 -443 -532 -959 -293 -517 -537 -957 -544
-978 -15 -50 1 -104 42 -143 l31 -30 562 -3 c416 -2 573 0 606 9 29 8 62 30
97 63 48 45 117 163 610 1036 306 542 559 992 561 1001 7 25 -701 1253 -757
1313 -87 95 -56 91 -690 93 -305 1 -567 -2 -581 -6z"/>
</g>
</svg>
